<?xml version="1.0" encoding="utf-8"?>
<!-- Generator: Adobe Illustrator 25.3.1, SVG Export Plug-In . SVG Version: 6.00 Build 0)  -->
<svg version="1.1" id="Layer_1" xmlns="http://www.w3.org/2000/svg" xmlns:xlink="http://www.w3.org/1999/xlink" x="0px" y="0px"
	 viewBox="0 0 280.2 217.9" style="enable-background:new 0 0 280.2 217.9;" xml:space="preserve">
<style type="text/css">
	.st0{fill:#010101;}
	.st1{fill:none;}
	.st2{fill:#5BA2CB;}
	.st3{fill:#FDD800;}
	.st4{fill:#59BC70;}
</style>
<g>
	<g>
		<g>
			<path class="st0" d="M280.2,200.5H264l-41.7-66.3v66.3h-16.2v-93.4h16.2l41.8,66.6v-66.6h16.1V200.5z"/>
		</g>
	</g>
	<g>
		<g>
			<path class="st0" d="M0,199.7v-93.4h32c10.6,0,18.6,2.1,24.1,6.4c5.5,4.2,8.3,10.5,8.3,18.9c0,4.3-1.2,8.1-3.5,11.6
				c-2.3,3.4-5.7,6.1-10.1,8c5,1.4,9,3.9,11.7,7.7s4.1,8.3,4.1,13.6c0,8.8-2.8,15.5-8.4,20.2s-13.7,7.1-24.2,7.1H0V199.7z
				 M16.2,145.6h15.9c5,0,9-1.1,11.8-3.4c2.8-2.3,4.3-5.5,4.3-9.7c0-4.6-1.3-8-3.9-10c-2.6-2.1-6.7-3.1-12.3-3.1H16.2V145.6z
				 M16.2,157.5v29.2h18c5.1,0,9.1-1.3,11.9-3.8c2.9-2.5,4.3-6,4.3-10.5c0-9.7-5-14.7-14.9-14.9H16.2z"/>
		</g>
	</g>
	<path class="st1" d="M93.7,187.6c20.1,10.3,44.2,12.9,67.4,5.4c37.4-12.1,61.2-46.8,61.2-84.1h-88.4L93.7,187.6z"/>
	<path class="st1" d="M174.1,30.2l-40.2,78.7h88.4c0-9-1.4-18.1-4.3-27.2C210.5,58.5,194.3,40.5,174.1,30.2z"/>
	<path class="st1" d="M45.5,108.9c0,9,1.4,18.1,4.3,27.2c7.5,23.2,23.7,41.2,43.8,51.5l40.2-78.7L45.5,108.9z"/>
	<path class="st1" d="M174.1,30.2c-20.1-10.3-44.2-12.9-67.4-5.4c-37.4,12.1-61.2,46.8-61.2,84.1h88.4L174.1,30.2z"/>
	<path class="st1" d="M108.3,159c12.8,6.6,28.1,8.2,42.9,3.4c23.8-7.7,39-29.8,39-53.5h-56.3L108.3,159z"/>
	<path class="st1" d="M159.5,58.8l-25.6,50.1h56.3c0-5.7-0.9-11.6-2.7-17.3C182.7,76.8,172.3,65.4,159.5,58.8z"/>
	<path class="st1" d="M77.6,108.9c0,5.7,0.9,11.6,2.7,17.3c4.8,14.8,15.1,26.2,27.9,32.8l25.6-50.1H77.6z"/>
	<path class="st1" d="M159.5,58.8c-12.8-6.6-28.1-8.2-42.9-3.4c-23.8,7.7-39,29.8-39,53.5h56.3L159.5,58.8z"/>
	<g>
		<g>
			<g>
				<path class="st2" d="M218,81.7c2.9,9,4.3,18.2,4.3,27.2h20.5c0-11.1-1.7-22.4-5.3-33.5c-9.2-28.6-29.2-50.8-54-63.5l-9.3,18.3
					C194.3,40.5,210.5,58.5,218,81.7z"/>
			</g>
			<g>
				<path class="st2" d="M187.4,91.6c1.9,5.7,2.7,11.6,2.7,17.3h13.1c0-7.1-1.1-14.2-3.4-21.3c-5.9-18.2-18.6-32.3-34.4-40.4
					l-5.9,11.6C172.3,65.4,182.7,76.8,187.4,91.6z"/>
			</g>
		</g>
	</g>
	<g>
		<g>
			<g>
				<path class="st3" d="M222.3,108.9c0,37.3-23.8,72-61.2,84.1c-23.2,7.5-47.3,4.9-67.4-5.4l-9.3,18.3
					c24.8,12.7,54.5,15.9,83.1,6.7c46.1-14.9,75.4-57.7,75.4-103.6L222.3,108.9z"/>
			</g>
			<g>
				<path class="st3" d="M190.2,108.9c0,23.8-15.1,45.8-39,53.5c-14.8,4.8-30.1,3.1-42.9-3.4l-5.9,11.6c15.8,8.1,34.7,10.1,52.9,4.2
					c29.4-9.5,48-36.7,48-66L190.2,108.9z"/>
			</g>
		</g>
	</g>
	<g>
		<g>
			<g>
				<path class="st4" d="M100.4,5.3C54.3,20.2,25,63,25,108.9c0,11.1,1.7,22.4,5.3,33.5c9.2,28.6,29.2,50.8,54,63.5l9.3-18.3
					c-20.1-10.3-36.3-28.3-43.8-51.5c-2.9-9-4.3-18.2-4.3-27.2c0-37.3,23.8-72,61.2-84.1c23.2-7.5,47.3-4.9,67.4,5.4l9.3-18.3
					C158.7-0.7,129-3.9,100.4,5.3z"/>
			</g>
			<g>
				<path class="st4" d="M112.6,43c-29.4,9.5-48,36.7-48,66c0,7.1,1.1,14.2,3.4,21.3c5.9,18.2,18.6,32.3,34.4,40.4l5.9-11.6
					c-12.8-6.6-23.1-18-27.9-32.8c-1.9-5.7-2.7-11.6-2.7-17.3c0-23.8,15.1-45.8,39-53.5c14.8-4.8,30.1-3.1,42.9,3.4l5.9-11.6
					C149.7,39.1,130.8,37.1,112.6,43z"/>
			</g>
		</g>
	</g>
	<g>
		<g>
			<path class="st0" d="M280.2,107.2H264l-41.7-66.3v66.3h-16.2V13.7h16.2l41.8,66.6V13.7h16.1V107.2z"/>
		</g>
	</g>
	<g>
		<g>
			<path class="st0" d="M59.8,122.2c1.2,0,2.3,0.2,3.3,0.5c-1.3-4.1-3.6-7.5-7-10.1c-5.5-4.2-13.6-6.4-24.1-6.4H19.5
				c0.1,4.3,0,8.6,0.4,12.9c0,0.1,0,0.1,0,0.2h12c5.6,0,9.7,1,12.3,3.1c2,1.6,3.2,3.9,3.7,7c0.3,0,0.6,0,0.9,0c0.3,0,0.6,0,0.9,0
				C51.1,125.4,54.4,122.2,59.8,122.2z"/>
		</g>
	</g>
	<g>
		<g>
			<path class="st0" d="M0,107.2V13.7h32c10.6,0,18.6,2.1,24.1,6.4c5.5,4.2,8.3,10.5,8.3,18.9c0,4.3-1.2,8.1-3.5,11.6
				c-2.3,3.4-5.7,6.1-10.1,8c5,1.4,9,3.9,11.7,7.7c2.8,3.8,4.1,8.3,4.1,13.6c0,8.8-2.8,15.5-8.4,20.2s-13.7,7.1-24.2,7.1
				C34,107.2,0,107.2,0,107.2z M16.2,53h15.9c5,0,9-1.1,11.8-3.4c2.8-2.3,4.3-5.5,4.3-9.7c0-4.6-1.3-8-3.9-10
				c-2.6-2.1-6.7-3.1-12.3-3.1H16.2V53z M16.2,65v29.2h18c5.1,0,9.1-1.3,11.9-3.8c2.9-2.5,4.3-6,4.3-10.5c0-9.7-5-14.7-14.9-14.9
				C35.5,65,16.2,65,16.2,65z"/>
		</g>
	</g>
</g>
</svg>
