<?xml version="1.0" encoding="utf-8"?>
<!-- Generator: Adobe Illustrator 23.0.1, SVG Export Plug-In . SVG Version: 6.00 Build 0)  -->
<svg version="1.1" id="Layer_1" xmlns="http://www.w3.org/2000/svg" xmlns:xlink="http://www.w3.org/1999/xlink" x="0px" y="0px"
	 viewBox="0 0 283.5 221.7" style="enable-background:new 0 0 283.5 221.7;" xml:space="preserve">
<style type="text/css">
	.st0{fill:#010101;}
	.st1{fill:none;}
	.st2{fill:#5BA2CB;}
	.st3{fill:#FDD800;}
	.st4{fill:#59BC70;}
</style>
<g>
	<g>
		<g>
			<path class="st0" d="M282.2,203H266l-41.7-66.3V203h-16.2v-93.4h16.2l41.8,66.6v-66.6h16.1V203z"/>
		</g>
	</g>
	<g>
		<g>
			<path class="st0" d="M2,202.2v-93.4h32c10.6,0,18.6,2.1,24.1,6.4c5.5,4.2,8.3,10.5,8.3,18.9c0,4.3-1.2,8.1-3.5,11.6
				c-2.3,3.4-5.7,6.1-10.1,8c5,1.4,9,3.9,11.7,7.7s4.1,8.3,4.1,13.6c0,8.8-2.8,15.5-8.4,20.2c-5.6,4.7-13.7,7.1-24.2,7.1H2z
				 M18.2,148.1h15.9c5,0,9-1.1,11.8-3.4c2.8-2.3,4.3-5.5,4.3-9.7c0-4.6-1.3-8-3.9-10c-2.6-2.1-6.7-3.1-12.3-3.1H18.2V148.1z
				 M18.2,160v29.2h18c5.1,0,9.1-1.3,11.9-3.8c2.9-2.5,4.3-6,4.3-10.5c0-9.7-5-14.7-14.9-14.9H18.2z"/>
		</g>
	</g>
	<path class="st1" d="M95.7,190.1c20.1,10.3,44.2,12.9,67.4,5.4c37.4-12.1,61.2-46.8,61.2-84.1l-88.4,0L95.7,190.1z"/>
	<path class="st1" d="M176.1,32.7l-40.2,78.7l88.4,0c0-9-1.4-18.1-4.3-27.2C212.5,61,196.3,43,176.1,32.7z"/>
	<path class="st1" d="M47.5,111.4c0,9,1.4,18.1,4.3,27.2c7.5,23.2,23.7,41.2,43.8,51.5l40.2-78.7L47.5,111.4z"/>
	<path class="st1" d="M176.1,32.7c-20.1-10.3-44.2-12.9-67.4-5.4c-37.4,12.1-61.2,46.8-61.2,84.1l88.4,0L176.1,32.7z"/>
	<path class="st1" d="M110.3,161.5c12.8,6.6,28.1,8.2,42.9,3.4c23.8-7.7,39-29.8,39-53.5l-56.3,0L110.3,161.5z"/>
	<path class="st1" d="M161.5,61.3l-25.6,50.1l56.3,0c0-5.7-0.9-11.6-2.7-17.3C184.7,79.3,174.3,67.9,161.5,61.3z"/>
	<path class="st1" d="M79.6,111.4c0,5.7,0.9,11.6,2.7,17.3c4.8,14.8,15.1,26.2,27.9,32.8l25.6-50.1L79.6,111.4z"/>
	<path class="st1" d="M161.5,61.3c-12.8-6.6-28.1-8.2-42.9-3.4c-23.8,7.7-39,29.8-39,53.5l56.3,0L161.5,61.3z"/>
	<g>
		<g>
			<g>
				<path class="st2" d="M220,84.2c2.9,9,4.3,18.2,4.3,27.2l20.5,0c0-11.1-1.7-22.4-5.3-33.5c-9.2-28.6-29.2-50.8-54-63.5l-9.3,18.3
					C196.3,43,212.5,61,220,84.2z"/>
			</g>
			<g>
				<path class="st2" d="M189.4,94.1c1.9,5.7,2.7,11.6,2.7,17.3l13.1,0c0-7.1-1.1-14.2-3.4-21.3c-5.9-18.2-18.6-32.3-34.4-40.4
					l-5.9,11.6C174.3,67.9,184.7,79.3,189.4,94.1z"/>
			</g>
		</g>
	</g>
	<g>
		<g>
			<g>
				<path class="st3" d="M224.3,111.4c0,37.3-23.8,72-61.2,84.1c-23.2,7.5-47.3,4.9-67.4-5.4l-9.3,18.3
					c24.8,12.7,54.5,15.9,83.1,6.7c46.1-14.9,75.4-57.7,75.4-103.6L224.3,111.4z"/>
			</g>
			<g>
				<path class="st3" d="M192.2,111.4c0,23.8-15.1,45.8-39,53.5c-14.8,4.8-30.1,3.1-42.9-3.4l-5.9,11.6c15.8,8.1,34.7,10.1,52.9,4.2
					c29.4-9.5,48-36.7,48-66L192.2,111.4z"/>
			</g>
		</g>
	</g>
	<g>
		<g>
			<g>
				<path class="st4" d="M102.4,7.8C56.3,22.7,27,65.5,27,111.4c0,11.1,1.7,22.4,5.3,33.5c9.2,28.6,29.2,50.8,54,63.5l9.3-18.3
					c-20.1-10.3-36.3-28.3-43.8-51.5c-2.9-9-4.3-18.2-4.3-27.2c0-37.3,23.8-72,61.2-84.1c23.2-7.5,47.3-4.9,67.4,5.4l9.3-18.3
					C160.7,1.8,131-1.4,102.4,7.8z"/>
			</g>
			<g>
				<path class="st4" d="M114.6,45.5c-29.4,9.5-48,36.7-48,66c0,7.1,1.1,14.2,3.4,21.3c5.9,18.2,18.6,32.3,34.4,40.4l5.9-11.6
					c-12.8-6.6-23.1-18-27.9-32.8c-1.9-5.7-2.7-11.6-2.7-17.3c0-23.8,15.1-45.8,39-53.5c14.8-4.8,30.1-3.1,42.9,3.4l5.9-11.6
					C151.7,41.6,132.8,39.6,114.6,45.5z"/>
			</g>
		</g>
	</g>
	<g>
		<g>
			<path class="st0" d="M282.2,109.7H266l-41.7-66.3v66.3h-16.2V16.2h16.2l41.8,66.6V16.2h16.1V109.7z"/>
		</g>
	</g>
	<g>
		<g>
			<path class="st0" d="M61.8,124.7c1.2,0,2.3,0.2,3.3,0.5c-1.3-4.1-3.6-7.5-7-10.1c-5.5-4.2-13.6-6.4-24.1-6.4H21.5
				c0.1,4.3,0,8.6,0.4,12.9c0,0.1,0,0.1,0,0.2h12c5.6,0,9.7,1,12.3,3.1c2,1.6,3.2,3.9,3.7,7c0.3,0,0.6,0,0.9,0c0.3,0,0.6,0,0.9,0
				C53.1,127.9,56.4,124.7,61.8,124.7z"/>
		</g>
	</g>
	<g>
		<g>
			<path class="st0" d="M2,109.7V16.2h32c10.6,0,18.6,2.1,24.1,6.4c5.5,4.2,8.3,10.5,8.3,18.9c0,4.3-1.2,8.1-3.5,11.6
				c-2.3,3.4-5.7,6.1-10.1,8c5,1.4,9,3.9,11.7,7.7c2.8,3.8,4.1,8.3,4.1,13.6c0,8.8-2.8,15.5-8.4,20.2c-5.6,4.7-13.7,7.1-24.2,7.1H2z
				 M18.2,55.5h15.9c5,0,9-1.1,11.8-3.4c2.8-2.3,4.3-5.5,4.3-9.7c0-4.6-1.3-8-3.9-10c-2.6-2.1-6.7-3.1-12.3-3.1H18.2V55.5z
				 M18.2,67.5v29.2h18c5.1,0,9.1-1.3,11.9-3.8c2.9-2.5,4.3-6,4.3-10.5c0-9.7-5-14.7-14.9-14.9H18.2z"/>
		</g>
	</g>
</g>
</svg>
